<svg viewBox="0 0 550 550" width="35" height="35" xml:space="preserve" xmlns:xlink="http://www.w3.org/1999/xlink" xmlns="http://www.w3.org/2000/svg"><defs><linearGradient id="a"><stop style="stop-color:#0b82bd;stop-opacity:1" offset="0"/><stop style="stop-color:#2ca4df;stop-opacity:1" offset="1"/></linearGradient><linearGradient xlink:href="#a" id="b" x1="256" y1="504" x2="258.052" y2="7.262" gradientUnits="userSpaceOnUse" gradientTransform="translate(16.935 16.935)scale(1.00806)"/></defs><path style="fill:#fff;stroke-width:5;stroke-linecap:round" d="M475 275a200 200 0 0 1-199.892 200A200 200 0 0 1 75 275.216 200 200 0 0 1 274.676 75 200 200 0 0 1 475 274.568"/><path fill="currentColor" d="M275 25a250 250 0 1 0 0 500 250 250 0 1 0 0-500m115.927 170.06c-3.73 39.517-20.06 135.484-28.326 179.738-3.528 18.75-10.383 25-17.036 25.605-14.517 1.31-25.505-9.576-39.617-18.85-21.976-14.416-34.476-23.388-55.746-37.5-24.698-16.23-8.67-25.202 5.342-39.82 3.73-3.83 67.641-61.995 68.851-67.237.202-.706.303-3.125-1.21-4.436s-3.629-.806-5.14-.504c-2.218.504-37.4 23.69-105.444 69.658-9.98 6.855-19.053 10.181-27.117 9.98-8.972-.202-26.109-5.04-38.911-9.174-15.625-5.04-28.125-7.762-27.017-16.431.605-4.537 6.754-9.073 18.549-13.81 72.883-31.755 121.472-52.723 145.766-62.803 69.456-28.83 83.87-33.871 93.246-34.073 2.117 0 6.653.504 9.677 2.924 2.016 1.713 3.226 4.133 3.529 6.754.504 3.225.604 6.552.403 9.879z" style="fill:url(#b);stroke-width:1"/></svg>
