<svg viewBox="0 0 128 128" xmlns:xlink="http://www.w3.org/1999/xlink" xmlns="http://www.w3.org/2000/svg"><linearGradient id="a"><stop offset="0" stop-color="#2aabee"/><stop offset="1" stop-color="#229ed9"/></linearGradient><linearGradient id="b" gradientUnits="userSpaceOnUse" x1="4392" x2="4392" xlink:href="#a" y1="8" y2="136" gradientTransform="translate(-4328 -8)"/><path d="M64 0a64 64 0 0 0-45.25 18.745A64.02 64.02 0 0 0 0 64a64.02 64.02 0 0 0 18.75 45.255 63.99 63.99 0 0 0 90.5 0A64.02 64.02 0 0 0 128 64a64.02 64.02 0 0 0-18.75-45.255A64 64 0 0 0 64 0" fill="url(#b)" style="fill:url(#b)"/><path d="M28.97 63.324q27.99-12.192 37.32-16.076c17.78-7.393 21.47-8.677 23.88-8.72.53-.01 1.71.122 2.48.745.64.525.82 1.235.91 1.733.08.498.19 1.633.1 2.519-.96 10.12-5.13 34.678-7.25 46.013-.89 4.796-2.66 6.404-4.37 6.561-3.72.342-6.54-2.456-10.14-4.815-5.63-3.693-8.81-5.991-14.28-9.594-6.32-4.164-2.22-6.453 1.38-10.193.94-.98 17.32-15.874 17.63-17.225.04-.17.08-.8-.3-1.131-.37-.333-.92-.22-1.32-.13-.57.129-9.56 6.077-27 17.844-2.55 1.754-4.86 2.609-6.94 2.564-2.28-.05-6.68-1.292-9.95-2.354-4-1.303-7.19-1.992-6.91-4.205.14-1.152 1.73-2.331 4.76-3.536" fill="#fff"/></svg>