<?xml version="1.0" encoding="UTF-8" standalone="no"?>
<!-- Created with Inkscape (http://www.inkscape.org/) -->

<svg
   width="166.39191mm"
   height="131.50487mm"
   viewBox="0 0 166.39191 131.50487"
   version="1.1"
   id="svg1"
   xml:space="preserve"
   xmlns:inkscape="http://www.inkscape.org/namespaces/inkscape"
   xmlns:sodipodi="http://sodipodi.sourceforge.net/DTD/sodipodi-0.dtd"
   xmlns="http://www.w3.org/2000/svg"
   xmlns:svg="http://www.w3.org/2000/svg"><sodipodi:namedview
     id="namedview1"
     pagecolor="#ffffff"
     bordercolor="#000000"
     borderopacity="0.25"
     inkscape:showpageshadow="2"
     inkscape:pageopacity="0.0"
     inkscape:pagecheckerboard="0"
     inkscape:deskcolor="#d1d1d1"
     inkscape:document-units="mm"><inkscape:page
       x="0"
       y="0"
       width="166.39191"
       height="131.50487"
       id="page2"
       margin="0"
       bleed="0" /></sodipodi:namedview><defs
     id="defs1"><linearGradient
       id="swatch1"
       inkscape:swatch="solid"><stop
         style="stop-color:#6b6f6c;stop-opacity:1;"
         offset="0"
         id="stop1" /></linearGradient></defs><g
     inkscape:label="Camada 1"
     inkscape:groupmode="layer"
     id="layer1"
     transform="translate(-24.631367,-74.452277)"><g
       id="g1"
       transform="translate(0.53707052,-55.318264)"><path
         style="fill:#000000;stroke:#ffffff;stroke-width:13;stroke-dasharray:none;stroke-opacity:1;paint-order:markers stroke fill"
         d="M 69.117816,251.69661 C 49.68962,244.48334 36.005172,226.60984 32.571867,203.9633 c -2.023499,-13.34727 -2.465313,-31.667 -0.942001,-39.05992 2.355833,-11.43329 8.396335,-19.54697 17.892662,-24.03365 4.854528,-2.2936 8.019222,-3.0383 15.165907,-3.56879 5.616986,-0.41694 20.307503,-0.77664 39.555205,-0.96851 47.18239,-0.47033 59.50705,1.74557 69.99082,12.58394 8.79185,9.30781 9.66384,15.64212 9.75002,27.66256 0.0174,5.61318 -0.0682,7.36381 -0.46502,9.51264 -1.15426,6.25022 -3.30411,10.52747 -7.94279,15.80265 -5.20418,5.91829 -13.91459,11.09 -20.42234,12.12556 -1.00677,0.1602 -2.08111,0.45478 -2.38743,0.65461 -0.88366,0.57648 -2.42259,3.0854 -4.95263,8.07433 -6.61235,13.03876 -14.41789,20.97303 -26.14123,26.57238 -5.57582,2.66315 -10.39214,4.08303 -16.24295,4.78852 -12.061189,0.72109 -24.704732,1.64899 -36.312274,-2.41301 z m 36.145094,-9.75311 c 8.2157,-1.15896 16.27523,-5.25468 22.38982,-11.37813 6.3198,-6.32896 9.89765,-13.06873 13.06848,-24.61769 l 1.01699,-3.70417 4.86679,-0.15937 c 5.6746,-0.18582 8.29774,-0.7084 11.80429,-2.35162 2.93738,-1.3765 5.07432,-2.92777 7.38701,-5.36242 3.22519,-3.39529 5.1583,-7.37987 5.93576,-12.23492 0.48216,-3.01102 0.42424,-9.77122 -0.10929,-12.75489 -1.34873,-7.54266 -5.84766,-13.35716 -12.53779,-16.20406 -5.85419,-2.49118 -14.57809,-3.86546 -28.51529,-4.49202 -15.23511,-0.68491 -44.941777,-0.55226 -56.223954,0.25106 -14.321513,1.01973 -20.889143,2.88838 -25.173465,7.16246 -1.415008,1.41162 -2.049281,2.34142 -3.252163,4.76742 -2.302275,4.64328 -2.318641,4.73636 -2.460253,13.99246 -0.322254,21.0633 1.693035,34.13787 6.910776,44.83498 2.420268,4.9619 4.522567,7.98419 7.94718,11.42499 4.047787,4.0669 7.870028,6.48746 13.646676,8.6422 10.231503,3.64513 22.647996,3.261 33.298433,2.18372 z M 90.152913,220.80036 c -3.442813,-1.44618 -9.643842,-5.35945 -13.822812,-8.72313 -2.810148,-2.2619 -7.316086,-6.91999 -9.3545,-9.67038 -3.152887,-4.25411 -5.271965,-8.46572 -6.428067,-12.77559 -0.783785,-2.9219 -0.856633,-8.47113 -0.145296,-11.06796 1.49504,-5.45783 5.329084,-9.98789 10.636197,-12.56705 2.968413,-1.44259 4.928493,-1.83322 8.272109,-1.64857 4.553793,0.25148 7.076822,1.51356 11.538728,5.77197 l 2.612922,2.49375 2.017287,-2.08931 c 3.447078,-3.57015 7.263289,-5.64564 11.554089,-6.28381 3.73489,-0.5555 8.31815,1.01465 12.36443,4.23586 2.41459,1.92222 4.11947,4.10867 5.4929,7.04446 1.45494,3.10999 1.92684,5.28494 1.92316,8.86354 -0.0115,11.14587 -7.98879,22.32653 -23.04919,32.30474 -1.97801,1.31052 -4.605254,2.88269 -5.83831,3.4937 -1.947942,0.96526 -2.504746,1.12054 -4.246273,1.18424 -1.634159,0.0598 -2.285647,-0.0449 -3.527374,-0.56646 z m 53.509517,-32.67115 c -1.30191,-0.68952 -1.78391,-2.28136 -1.98683,-6.5617 -0.16168,-3.41053 0.1985,-17.17494 0.45617,-17.43262 0.0755,-0.0755 1.79119,-0.16399 3.8126,-0.19663 4.30758,-0.0695 5.55441,0.24774 7.97441,2.02924 3.72095,2.73921 5.5242,7.85779 4.45746,12.6526 -0.89638,4.02903 -3.0067,7.30442 -5.53009,8.58312 -2.70982,1.37317 -7.43902,1.85001 -9.18372,0.92599 z"
         id="path1"
         sodipodi:nodetypes="sssssssssssssssscsscssssssssssssssccssssssscsssssssscssscssss"
         inkscape:export-filename="path1.png"
         inkscape:export-xdpi="150"
         inkscape:export-ydpi="150" /><path
         style="fill:#ff0000;stroke:#ffffff;stroke-width:13;stroke-dasharray:none;stroke-opacity:1;paint-order:markers stroke fill"
         d="m 89.346096,222.46077 c -3.442813,-1.44618 -9.643842,-5.35945 -13.822812,-8.72313 -2.810148,-2.2619 -7.316086,-6.91999 -9.3545,-9.67039 -3.152887,-4.25411 -5.271965,-8.46572 -6.428067,-12.77559 -0.783785,-2.9219 -0.856633,-8.47113 -0.145296,-11.06796 1.49504,-5.45783 5.329084,-9.98789 10.636197,-12.56705 2.968413,-1.44259 4.928493,-1.83322 8.272109,-1.64857 4.553793,0.25148 7.076822,1.51356 11.538728,5.77197 l 2.612922,2.49375 2.017287,-2.08931 c 3.447078,-3.57015 7.263276,-5.64564 11.554076,-6.28381 3.73489,-0.5555 8.31815,1.01465 12.36444,4.23586 2.41459,1.92222 4.11947,4.10867 5.4929,7.04446 1.45494,3.10999 1.92684,5.28494 1.92316,8.86354 -0.0115,11.14587 -7.98879,22.32654 -23.0492,32.30475 -1.97801,1.31052 -4.605241,2.88269 -5.838297,3.4937 -1.947942,0.96526 -2.504746,1.12054 -4.246273,1.18424 -1.634159,0.0598 -2.285647,-0.0449 -3.527374,-0.56646 z"
         id="path1-4"
         sodipodi:nodetypes="cssssssscsssscsssc" /></g></g></svg>
