<svg width="130" height="100" viewBox="0 0 135.059 106.619" xml:space="preserve" xmlns="http://www.w3.org/2000/svg">
  <g style="stroke:#fff;stroke-width:12.265;stroke-dasharray:none;stroke-opacity:1">
    <path style="fill:#fff;fill-opacity:1;fill-rule:evenodd;stroke:#fff;stroke-width:12.265;stroke-linecap:round;stroke-linejoin:bevel;stroke-dasharray:none;stroke-opacity:1;paint-order:normal" d="M103.955 145.049c21.854-.004 33.164.195 37.679.663 20.53 2.131 28.042 5.663 32.807 15.426 2.165 4.435 3.045 10.004 2.627 16.615-.662 10.45-5.637 18.166-14.411 22.348-4.509 2.15-7.84 2.833-13.797 2.833h-4.504l-1.38 4.893c-3.092 10.956-6.823 18.334-12.41 24.536-6.789 7.537-16.734 12.914-26.16 14.143-5.764.751-21.458.623-26.608-.217-21.922-3.576-35.072-19.593-38.578-46.99-1.022-7.98-1.54-25.534-.939-31.74 1.05-10.834 5.93-16.784 16.082-19.614 8.854-2.468 16.071-2.89 49.592-2.896z" transform="matrix(-.81533 0 0 .81533 155.01 -106.105)"/>
    <path style="fill:#000;stroke:#fff;stroke-width:12.265;stroke-dasharray:none;stroke-opacity:1;paint-order:markers stroke fill" d="M69.118 251.697c-19.428-7.214-33.113-25.087-36.546-47.734-2.024-13.347-2.465-31.667-.942-39.06 2.356-11.433 8.396-19.547 17.893-24.033 4.854-2.294 8.019-3.039 15.165-3.57 5.617-.416 20.308-.776 39.556-.968 47.182-.47 59.507 1.746 69.99 12.584 8.792 9.308 9.664 15.642 9.75 27.663.018 5.613-.068 7.364-.465 9.513-1.154 6.25-3.304 10.527-7.942 15.802-5.205 5.919-13.915 11.09-20.423 12.126-1.006.16-2.08.455-2.387.654-.884.577-2.423 3.086-4.953 8.075-6.612 13.038-14.418 20.973-26.141 26.572-5.576 2.663-10.392 4.083-16.243 4.789-12.061.72-24.705 1.649-36.312-2.413zm36.145-9.754c8.216-1.158 16.275-5.254 22.39-11.378 6.32-6.329 9.897-13.068 13.068-24.617l1.017-3.704 4.867-.16c5.675-.186 8.298-.708 11.804-2.351 2.938-1.377 5.075-2.928 7.387-5.363 3.225-3.395 5.159-7.38 5.936-12.235.482-3.01.424-9.771-.11-12.755-1.348-7.542-5.847-13.357-12.537-16.204-5.854-2.49-14.578-3.865-28.515-4.492-15.235-.685-44.942-.552-56.224.251-14.322 1.02-20.89 2.889-25.174 7.163-1.415 1.411-2.049 2.341-3.252 4.767-2.302 4.643-2.319 4.737-2.46 13.993-.322 21.063 1.693 34.137 6.91 44.835 2.42 4.961 4.523 7.984 7.948 11.425 4.048 4.066 7.87 6.487 13.646 8.642 10.232 3.645 22.648 3.26 33.299 2.184zm38.4-53.814c-1.302-.69-1.784-2.281-1.987-6.561-.162-3.411.198-17.175.456-17.433.075-.076 1.791-.164 3.812-.197 4.308-.07 5.555.248 7.975 2.03 3.72 2.739 5.524 7.857 4.457 12.652-.896 4.03-3.006 7.305-5.53 8.583-2.71 1.373-7.439 1.85-9.184.926z" transform="matrix(-.81533 0 0 .81533 155.01 -106.105)"/>
    <path d="M90.415 224.148c-3.448-1.454-9.659-5.388-13.844-8.77-2.814-2.273-7.327-6.955-9.368-9.72-3.158-4.277-5.28-8.51-6.438-12.843-.785-2.937-.858-8.516-.145-11.126 1.497-5.486 5.337-10.04 10.652-12.633 2.973-1.45 4.936-1.843 8.284-1.657 4.56.253 7.088 1.521 11.556 5.802l2.617 2.507 2.02-2.1c3.453-3.59 7.274-5.676 11.572-6.317 3.74-.559 8.33 1.02 12.383 4.258 2.418 1.932 4.125 4.13 5.5 7.081 1.458 3.127 1.93 5.313 1.927 8.91-.012 11.205-8.001 22.444-23.084 32.475-1.98 1.317-4.612 2.897-5.847 3.512-1.95.97-2.508 1.126-4.253 1.19-1.636.06-2.289-.045-3.532-.57z" style="fill:red;fill-opacity:1;stroke:#fff;stroke-width:12.265;stroke-dasharray:none;stroke-opacity:1;paint-order:markers stroke fill" transform="matrix(-.81533 0 0 .81533 155.01 -106.105)"/>
  </g>
</svg>