<svg width="150" height="125" viewBox="0 0 261.042 215.841" xmlns="http://www.w3.org/2000/svg">
  <g fill="none" fill-rule="evenodd">
    <path d="M214.46 80.015h10.075c20.149 0 36.507-16.39 36.507-36.578 0-20.187-16.358-36.577-36.507-36.577-20.15 0-36.509 16.39-36.509 36.577V53.53c-.1 14.591 11.77 26.484 26.434 26.484m-167.877.001H36.508c-20.15 0-36.507-16.39-36.507-36.578C0 23.25 16.359 6.86 36.508 6.86c20.15 0 36.509 16.39 36.509 36.577V53.53c.1 14.591-11.77 26.484-26.434 26.484" fill="#000"/>
    <path d="M185.333 197.94c-33.216 15.092-71.818 15.391-105.235.8l-2.893-1.299c-33.715-14.59-55.26-46.271-55.26-80.95v-8.494C21.944 51.932 70.621 6.36 130.571 6.36c59.948 0 108.626 45.472 108.626 101.637v9.495c0 34.278-20.948 65.558-53.865 80.449" fill="#fff"/>
    <path d="M185.333 197.94c-33.216 15.092-71.818 15.391-105.235.8l-2.893-1.299c-33.715-14.59-55.26-46.271-55.26-80.95v-8.494C21.944 51.932 70.621 6.36 130.571 6.36c59.948 0 108.626 45.472 108.626 101.637v9.495c0 34.278-20.948 65.558-53.865 80.449z" stroke="#000" stroke-width="12.72"/>
    <path d="M53.883 75.378c10.645-17.126 30.843-22.5 45.114-12.004s17.208 32.89 6.564 50.016c-10.645 17.126-30.843 22.501-45.113 12.005-14.27-10.498-17.21-32.89-6.565-50.017" fill="#000"/>
    <path d="m182.511 184.484-.008.004c-31.589 14.35-67.922 14.626-99.627.783l-2.946-1.323c-31.16-13.485-51.295-42.895-51.295-74.926v8.374c0 32.031 20.134 61.441 51.295 74.926l2.946 1.323c31.704 13.842 68.038 13.567 99.627-.783l.008-.004c30.371-13.74 49.996-42.97 49.996-74.47v-8.373c0 31.499-19.625 60.73-49.996 74.47" fill="#e6e6e6"/>
    <path d="m145.047 143.49-9.65 6.056c-2.97 1.806-6.682 1.806-9.545 0l-9.65-6.056c-2.652-1.7-4.243-4.57-4.243-7.65 0-4.994 4.03-9.032 9.015-9.032h19.3c4.985 0 9.015 4.038 9.015 9.032 0 3.08-1.59 6.056-4.242 7.65" fill="#000"/>
    <path d="M157.455 157.62c-14.847 14.876-38.92 14.876-53.767 0" stroke="#010202" stroke-width="10.6" stroke-linecap="round"/>
    <path d="M130.624 168.777v-21.994" stroke="#010202" stroke-width="8.48" stroke-linecap="round"/>
    <path d="M75.111 79.014c3.779-6.079 10.948-7.987 16.013-4.261s6.107 11.674 2.33 17.752c-3.779 6.079-10.948 7.986-16.013 4.26-5.065-3.724-6.108-11.673-2.33-17.751" fill="#fff"/>
    <path d="M207.365 75.378c-10.645-17.126-30.842-22.5-45.113-12.004-14.27 10.497-17.209 32.89-6.565 50.016 10.645 17.126 30.844 22.501 45.114 12.005 14.27-10.498 17.21-32.89 6.564-50.017" fill="#000"/>
    <path d="M186.137 79.014c-3.779-6.079-10.948-7.987-16.013-4.261s-6.107 11.674-2.33 17.752c3.779 6.079 10.948 7.986 16.013 4.26 5.065-3.724 6.108-11.673 2.33-17.751" fill="#fff"/>
  </g></svg>