<svg data-name="Layer 1" viewBox="0 0 29.661 30.588" width="118.641" height="122.35" xmlns="http://www.w3.org/2000/svg">
  <path style="fill:#000;fill-opacity:.25" d="m20 .039-3.569 2a1 1 0 0 0 .999 1.732l1.55-.89v3.338a1 1 0 0 0 2 0V2.89l1.52.882a1 1 0 0 0 .489.129 1 1 0 0 0 .51-1.86h.04zm-8.788 2.493a2.65 2.65 0 1 0-.122 5.297 2.65 2.65 0 0 0 2.65-2.648 2.65 2.65 0 0 0-2.528-2.649m17.571 0a2.65 2.65 0 1 0-.124 5.297 2.65 2.65 0 0 0 2.65-2.648 2.65 2.65 0 0 0-2.526-2.649M11.09 4.53v.02a.65.65 0 0 1 .65.63.65.65 0 1 1-.65-.65m17.569 0v.02a.65.65 0 0 1 .65.63.65.65 0 1 1-.65-.65M6.665 7.807a1 1 0 0 0-.526.133l-3.53 2v4.08a1 1 0 0 0 2 0v-1.69l3.361 2a1 1 0 0 0 1.37-.368 1 1 0 0 0-.36-1.41l-3.36-2 1.52-.87a1.003 1.003 0 0 0-.475-1.874m26.68.06a1.003 1.003 0 0 0-.475 1.873l1.49.85-3.5 2.001a1 1 0 0 0 .5 1.87 1 1 0 0 0 .5-.14l3.57-2.02v1.82a1 1 0 0 0 2 0v-4.08L33.87 8a1 1 0 0 0-.524-.133M20.09 9.177a1 1 0 0 0-.5.133l-8.51 4.91a1 1 0 0 0-.501.87v9.831a1 1 0 0 0 .502.86l8.51 4.919a1 1 0 0 0 .499.13 1 1 0 0 0 .5-.13l8.51-4.92a1 1 0 0 0 .5-.859v-9.83a1 1 0 0 0-.5-.87L20.59 9.31a1 1 0 0 0-.5-.133m1.032 2.748 6.478 3.734v7.508l-6.525-3.738ZM2.773 17.462a2.65 2.65 0 1 0-.124 5.299 2.65 2.65 0 0 0 2.65-2.65 2.65 2.65 0 0 0-2.526-2.65m34.589 0a2.65 2.65 0 1 0-.123 5.299 2.65 2.65 0 0 0 2.651-2.65 2.65 2.65 0 0 0-2.528-2.65m-34.713 2a.65.65 0 0 1 .65.65.65.65 0 1 1-.65-.65m34.59 0a.65.65 0 0 1 .65.65.65.65 0 1 1-.65-.65m-17.17 1.696 6.55 3.75-6.53 3.774-6.546-3.783zm16.36 3.905a1 1 0 0 0-.999.999v1.81l-3.341-1.941a1 1 0 0 0-1.37.37 1 1 0 0 0 .37 1.362l3.271 1.889-1.49.859a1 1 0 0 0 .5 1.872 1 1 0 0 0 .5-.14l3.53-2V26.06a1 1 0 0 0-.97-.999m-32.888.002a1 1 0 0 0-.932.997v4.07l.37.22a1.4 1.4 0 0 0 .26.15l2.9 1.67a1 1 0 0 0 1.001-1.73l-1.52-.89 3.16-1.83a1 1 0 1 0-1-1.731L7.77 26l-3.16 1.84v-1.78a1 1 0 0 0-1.069-.997m7.902 7.19a2.65 2.65 0 1 0-.123 5.298 2.65 2.65 0 0 0 2.649-2.65 2.65 2.65 0 0 0-2.526-2.647m17.454.17a2.65 2.65 0 1 0-.096 5.297 2.65 2.65 0 0 0 2.629-2.651 2.65 2.65 0 0 0-2.533-2.646m-8.945.128a1 1 0 0 0-.932 1v3.718l-1.59-.86a1 1 0 0 0-1.36.36 1 1 0 0 0 .361 1.37l3.53 2 3.539-2a1 1 0 0 0 .36-1.37 1 1 0 0 0-1.32-.36l-1.52.871v-3.73a1 1 0 0 0-1.068-.999m-8.632 1.69a.65.65 0 0 1 .651.66.65.65 0 1 1-.65-.651zm17.481.18a.66.66 0 0 1 .648.648.65.65 0 1 1-.648-.648" transform="translate(-.045 .696)scale(.74469)"/>
  <path style="fill:#3fb950;fill-opacity:1" d="m20 .039-3.569 2a1 1 0 0 0 .999 1.732l1.55-.89v3.338a1 1 0 0 0 2 0V2.89l1.52.882a1 1 0 0 0 .489.129 1 1 0 0 0 .51-1.86h.04zm-8.788 2.493a2.65 2.65 0 1 0-.122 5.297 2.65 2.65 0 0 0 2.65-2.648 2.65 2.65 0 0 0-2.528-2.649m17.571 0a2.65 2.65 0 1 0-.124 5.297 2.65 2.65 0 0 0 2.65-2.648 2.65 2.65 0 0 0-2.526-2.649M11.09 4.53v.02a.65.65 0 0 1 .65.63.65.65 0 1 1-.65-.65m17.569 0v.02a.65.65 0 0 1 .65.63.65.65 0 1 1-.65-.65M6.665 7.807a1 1 0 0 0-.526.133l-3.53 2v4.08a1 1 0 0 0 2 0v-1.69l3.361 2a1 1 0 0 0 1.37-.368 1 1 0 0 0-.36-1.41l-3.36-2 1.52-.87a1.003 1.003 0 0 0-.475-1.874m26.68.06a1.003 1.003 0 0 0-.475 1.873l1.49.85-3.5 2.001a1 1 0 0 0 .5 1.87 1 1 0 0 0 .5-.14l3.57-2.02v1.82a1 1 0 0 0 2 0v-4.08L33.87 8a1 1 0 0 0-.524-.133M20.09 9.177a1 1 0 0 0-.5.133l-8.51 4.91a1 1 0 0 0-.501.87v9.831a1 1 0 0 0 .502.86l8.51 4.919a1 1 0 0 0 .499.13 1 1 0 0 0 .5-.13l8.51-4.92a1 1 0 0 0 .5-.859v-9.83a1 1 0 0 0-.5-.87L20.59 9.31a1 1 0 0 0-.5-.133m1.032 2.748 6.478 3.734v7.508l-6.525-3.738ZM2.773 17.462a2.65 2.65 0 1 0-.124 5.299 2.65 2.65 0 0 0 2.65-2.65 2.65 2.65 0 0 0-2.526-2.65m34.589 0a2.65 2.65 0 1 0-.123 5.299 2.65 2.65 0 0 0 2.651-2.65 2.65 2.65 0 0 0-2.528-2.65m-34.713 2a.65.65 0 0 1 .65.65.65.65 0 1 1-.65-.65m34.59 0a.65.65 0 0 1 .65.65.65.65 0 1 1-.65-.65m-17.17 1.696 6.55 3.75-6.53 3.774-6.546-3.783zm16.36 3.905a1 1 0 0 0-.999.999v1.81l-3.341-1.941a1 1 0 0 0-1.37.37 1 1 0 0 0 .37 1.362l3.271 1.889-1.49.859a1 1 0 0 0 .5 1.872 1 1 0 0 0 .5-.14l3.53-2V26.06a1 1 0 0 0-.97-.999m-32.888.002a1 1 0 0 0-.932.997v4.07l.37.22a1.4 1.4 0 0 0 .26.15l2.9 1.67a1 1 0 0 0 1.001-1.73l-1.52-.89 3.16-1.83a1 1 0 1 0-1-1.731L7.77 26l-3.16 1.84v-1.78a1 1 0 0 0-1.069-.997m7.902 7.19a2.65 2.65 0 1 0-.123 5.298 2.65 2.65 0 0 0 2.649-2.65 2.65 2.65 0 0 0-2.526-2.647m17.454.17a2.65 2.65 0 1 0-.096 5.297 2.65 2.65 0 0 0 2.629-2.651 2.65 2.65 0 0 0-2.533-2.646m-8.945.128a1 1 0 0 0-.932 1v3.718l-1.59-.86a1 1 0 0 0-1.36.36 1 1 0 0 0 .361 1.37l3.53 2 3.539-2a1 1 0 0 0 .36-1.37 1 1 0 0 0-1.32-.36l-1.52.871v-3.73a1 1 0 0 0-1.068-.999m-8.632 1.69a.65.65 0 0 1 .651.66.65.65 0 1 1-.65-.651zm17.481.18a.66.66 0 0 1 .648.648.65.65 0 1 1-.648-.648" transform="translate(-.045 -.029)scale(.74469)"/></svg>